<?xml version="1.0" encoding="UTF-8" standalone="no"?>
<!-- Created with Inkscape (http://www.inkscape.org/) -->

<svg
   width="129.91241mm"
   height="129.68567mm"
   viewBox="0 0 129.91241 129.68567"
   version="1.1"
   id="svg5"
   inkscape:version="1.2.2 (732a01da63, 2022-12-09)"
   xml:space="preserve"
   sodipodi:docname="Pick me a pong Lupa Arte.svg"
   inkscape:export-filename="..\..\pick-me-a-song-lupe.svg"
   inkscape:export-xdpi="96"
   inkscape:export-ydpi="96"
   xmlns:inkscape="http://www.inkscape.org/namespaces/inkscape"
   xmlns:sodipodi="http://sodipodi.sourceforge.net/DTD/sodipodi-0.dtd"
   xmlns="http://www.w3.org/2000/svg"
   xmlns:svg="http://www.w3.org/2000/svg"><sodipodi:namedview
     id="namedview7"
     pagecolor="#505050"
     bordercolor="#eeeeee"
     borderopacity="1"
     inkscape:showpageshadow="0"
     inkscape:pageopacity="0"
     inkscape:pagecheckerboard="0"
     inkscape:deskcolor="#505050"
     inkscape:document-units="px"
     showgrid="false"
     showborder="true"
     showguides="true"
     inkscape:zoom="0.52330513"
     inkscape:cx="1056.7448"
     inkscape:cy="623.91897"
     inkscape:window-width="1366"
     inkscape:window-height="705"
     inkscape:window-x="-8"
     inkscape:window-y="-8"
     inkscape:window-maximized="1"
     inkscape:current-layer="layer1" /><defs
     id="defs2" /><g
     inkscape:label="Layer 1"
     inkscape:groupmode="layer"
     id="layer1"
     transform="translate(-401.2032,-69.642622)"><g
       id="g2024"
       transform="translate(163.42976,-6.8632308)"><path
         style="fill:#9ae66e;fill-opacity:1;stroke-width:0.0257056"
         d="m 286.87012,166.44343 c -1.40275,-0.0603 -1.99507,-0.10098 -2.98185,-0.20453 -4.22489,-0.44338 -8.30886,-1.54977 -12.23789,-3.31539 -0.53622,-0.24097 -1.94315,-0.93796 -2.46572,-1.22151 -3.4465,-1.87013 -6.50392,-4.14924 -9.24098,-6.88853 -0.57269,-0.57317 -1.52962,-1.59158 -1.69923,-1.80841 l -0.0579,-0.074 0.15262,-0.14449 c 0.0839,-0.0795 0.2674,-0.2486 0.40768,-0.37584 0.14028,-0.12725 0.35991,-0.33013 0.48807,-0.45084 0.12815,-0.12072 0.34868,-0.32309 0.49006,-0.4497 0.14138,-0.12661 0.41924,-0.38065 0.61747,-0.56453 0.435,-0.40351 1.11492,-1.02963 1.4238,-1.31114 0.75212,-0.68547 2.72352,-2.50098 3.4612,-3.1875 0.33422,-0.31103 0.68568,-0.63492 0.78104,-0.71975 0.2468,-0.21955 1.06328,-0.97832 1.60433,-1.49093 0.7002,-0.6634 1.0458,-0.972 1.17339,-1.04776 0.18798,-0.11161 0.64265,-0.53392 0.71673,-0.66571 0.0422,-0.075 0.35508,-0.40136 0.83804,-0.87399 1.40823,-1.37814 1.75185,-1.70539 2.06972,-1.97115 0.0778,-0.065 0.19922,-0.17119 0.26991,-0.23594 0.19937,-0.18263 0.8894,-0.68981 1.25957,-0.92579 1.51278,-0.96439 3.68575,-1.66438 6.09943,-1.96485 0.74183,-0.0923 1.32441,-0.11844 2.01069,-0.09 0.31811,0.0132 0.62465,0.0296 0.6812,0.0366 0.0565,0.007 0.27634,0.0314 0.48841,0.0542 0.33788,0.0364 0.99463,0.14967 1.04364,0.17997 0.01,0.006 0.0968,0.0281 0.1938,0.0492 0.3143,0.0684 0.65879,0.16909 0.93469,0.27315 0.35644,0.13445 0.5869,0.15751 0.75598,0.0757 0.0652,-0.0316 0.23121,-0.16759 0.36891,-0.3023 0.1377,-0.1347 0.46967,-0.44882 0.73773,-0.69805 0.26806,-0.24923 0.51097,-0.48078 0.53982,-0.51456 0.15785,-0.18488 0.56119,-0.59975 0.701,-0.72105 0.0886,-0.0769 0.16117,-0.14763 0.16117,-0.15717 0,-0.0242 0.28979,-0.38876 0.34542,-0.43458 0.025,-0.0206 0.0903,-0.10339 0.14498,-0.1839 0.0547,-0.0805 0.13809,-0.1793 0.18538,-0.21953 0.0473,-0.0402 0.11688,-0.12705 0.15466,-0.19292 0.0378,-0.0659 0.14111,-0.19986 0.22963,-0.29776 0.0885,-0.0979 0.23513,-0.28472 0.3258,-0.41517 0.0907,-0.13044 0.30468,-0.41361 0.47556,-0.62925 0.17088,-0.21564 0.43215,-0.55136 0.5806,-0.74604 0.39807,-0.52203 1.00412,-1.302 1.49014,-1.91777 0.0837,-0.10603 0.21933,-0.28131 0.3014,-0.3895 0.12903,-0.17007 0.65465,-0.84701 1.24981,-1.60959 0.0964,-0.12344 0.25755,-0.33433 0.35823,-0.46865 0.10068,-0.13431 0.31169,-0.40614 0.46891,-0.60408 0.15722,-0.19793 0.35383,-0.45242 0.43692,-0.56552 0.0831,-0.11311 0.26751,-0.35043 0.40984,-0.52738 0.29902,-0.37174 0.45409,-0.57442 1.10107,-1.4391 0.57884,-0.7736 0.86929,-1.15184 1.13776,-1.48163 0.1135,-0.13943 0.32404,-0.41167 0.46787,-0.60499 0.31792,-0.42731 0.68333,-0.85653 0.82413,-0.96805 0.17673,-0.13997 0.32874,-0.19415 0.53239,-0.18976 0.19026,0.004 0.70484,0.10608 1.19261,0.23632 0.43016,0.11486 1.22624,0.27042 1.58359,0.30943 0.9769,0.10666 1.32904,0.1161 1.91507,0.0513 0.12018,-0.0133 0.34574,-0.037 0.50126,-0.0527 1.54391,-0.15599 2.9248,-0.69613 4.29284,-1.67914 0.4972,-0.35727 1.25111,-1.07244 1.63237,-1.54849 0.48138,-0.60105 0.93006,-1.42758 1.15332,-2.12456 0.18369,-0.57342 0.28626,-1.60737 0.29009,-2.92402 0.002,-0.82028 -0.001,-0.86038 -0.13468,-1.49092 -0.0812,-0.3838 -0.27436,-0.9043 -0.46739,-1.25958 -0.0499,-0.0919 -0.0992,-0.196 -0.10939,-0.23135 -0.0102,-0.0353 -0.079,-0.15102 -0.15285,-0.25706 -0.0738,-0.10603 -0.15495,-0.23282 -0.18024,-0.28175 -0.0488,-0.0945 -0.2993,-0.4076 -0.41205,-0.51512 -0.0371,-0.0353 -0.17363,-0.17243 -0.30347,-0.30463 -0.61005,-0.62115 -0.83721,-0.83413 -0.96868,-0.90819 -0.0778,-0.0438 -0.21079,-0.12859 -0.29562,-0.18843 -0.16306,-0.11503 -0.92214,-0.50097 -0.98532,-0.50097 -0.0205,0 -0.13367,-0.0463 -0.2516,-0.10282 -0.11793,-0.0566 -0.23039,-0.10282 -0.24991,-0.10282 -0.0195,0 -0.15588,-0.0399 -0.30303,-0.0886 -0.5889,-0.19499 -1.1604,-0.26366 -1.97999,-0.23792 -0.47757,0.015 -0.98211,0.0854 -1.43554,0.20021 -0.2819,0.0714 -1.12834,0.37933 -1.51663,0.55175 -0.37488,0.16646 -0.56836,0.24842 -1.02822,0.43557 -0.21914,0.0892 -0.58352,0.23836 -0.80973,0.3315 -0.22621,0.0931 -0.4382,0.16946 -0.4711,0.16961 -0.0329,2.5e-4 -0.0949,-0.0348 -0.13775,-0.0777 -0.0715,-0.0715 -0.0765,-0.0877 -0.0603,-0.19553 0.0215,-0.14333 -0.0139,-0.23908 -0.11648,-0.3149 -0.14538,-0.10748 -0.0925,-0.21111 0.32306,-0.63338 0.35004,-0.35567 0.64413,-0.68701 0.69209,-0.77976 0.0575,-0.11116 0.0494,-0.20301 -0.0309,-0.3531 -0.0386,-0.0721 -0.16757,-0.315 -0.28666,-0.53982 -0.25456,-0.48056 -0.36615,-0.63989 -0.49446,-0.70598 -0.15022,-0.0774 -0.6358,-0.13076 -0.90808,-0.0998 -0.28321,0.0322 -0.67769,0.11682 -0.85693,0.18386 -0.44502,0.16646 -1.04353,0.56804 -1.34778,0.90432 -0.36385,0.40215 -0.66185,0.98475 -0.66185,1.29391 0,0.16574 0.11336,0.4317 0.29438,0.69065 0.0641,0.0917 0.18281,0.2949 0.2638,0.45155 0.14732,0.28495 0.22524,0.37412 0.37753,0.43201 0.0606,0.023 0.11515,0.0167 0.2955,-0.0346 0.86647,-0.24626 0.91929,-0.25877 1.09477,-0.2594 l 0.17957,-6.4e-4 0.0692,0.12853 c 0.0465,0.0865 0.10551,0.1501 0.18031,0.19448 0.13379,0.0794 0.14252,0.14221 0.0303,0.21786 -0.0445,0.03 -0.32789,0.16778 -0.62979,0.30623 -0.30189,0.13845 -0.7976,0.36731 -1.10157,0.50857 -0.30397,0.14126 -0.70305,0.32641 -0.88685,0.41145 -0.81168,0.37553 -1.12193,0.52055 -1.36239,0.63681 -0.54686,0.26438 -0.63254,0.28026 -0.75566,0.14003 -0.0725,-0.0826 -0.0798,-0.10677 -0.0798,-0.26593 0,-0.14241 -0.01,-0.18373 -0.0514,-0.22158 -0.091,-0.0823 -0.0622,-0.14246 0.19317,-0.40374 0.14227,-0.14558 0.24383,-0.27075 0.24383,-0.30052 0,-0.0281 0.012,-0.0585 0.0267,-0.0676 0.0472,-0.0292 0.15319,-0.2151 0.15319,-0.26876 0,-0.0286 0.0116,-0.0519 0.0257,-0.0519 0.0552,0 0.0197,-0.0653 -0.1221,-0.22425 -0.0813,-0.0911 -0.17673,-0.21588 -0.21207,-0.27723 -0.0353,-0.0614 -0.0883,-0.13846 -0.11776,-0.17134 -0.0294,-0.0329 -0.0798,-0.10581 -0.11185,-0.16206 -0.0321,-0.0563 -0.0867,-0.13722 -0.12135,-0.17994 -0.19021,-0.23452 -0.24027,-0.30426 -0.24027,-0.33476 0,-0.0418 -0.2032,-0.21105 -0.36446,-0.30364 -0.0762,-0.0438 -0.15837,-0.0691 -0.2243,-0.0691 -0.0587,0 -0.1407,-0.0223 -0.18821,-0.0513 -0.0937,-0.0571 -0.21576,-0.068 -0.23152,-0.0207 -0.008,0.0238 -0.0673,0.0233 -0.26176,-0.002 l -0.25149,-0.0329 -0.26448,0.13143 c -0.29356,0.14589 -0.52545,0.33826 -0.72578,0.60207 -0.0658,0.0867 -0.19113,0.23427 -0.27847,0.32796 -0.18269,0.19598 -0.28104,0.37962 -0.32947,0.61518 -0.0375,0.18227 -0.0216,0.28286 0.0581,0.36891 0.0662,0.0715 0.45225,0.68503 0.54325,0.86345 0.0397,0.0778 0.08,0.17966 0.0896,0.22644 0.0214,0.1043 0.16339,0.25146 0.26393,0.27354 0.0409,0.009 0.12196,0.006 0.18017,-0.007 0.0785,-0.0176 0.12353,-0.0146 0.17433,0.0118 0.0924,0.0479 0.12362,0.045 0.33252,-0.0311 0.099,-0.0361 0.21794,-0.077 0.26437,-0.0909 0.089,-0.0267 0.18548,-0.0103 0.18548,0.0315 0,0.0136 0.055,0.0795 0.12211,0.1464 0.0672,0.0669 0.14143,0.15843 0.16506,0.20341 0.0275,0.0523 0.0878,0.10319 0.16709,0.14106 0.0995,0.0475 0.12412,0.072 0.12412,0.12354 0,0.0533 -0.0285,0.0787 -0.16709,0.14861 -0.26621,0.1344 -1.90631,0.90835 -2.60912,1.23122 -0.35345,0.16238 -0.86067,0.39958 -1.12716,0.5271 -0.54892,0.26269 -0.63102,0.28088 -0.72713,0.16114 -0.0524,-0.0653 -0.0603,-0.10113 -0.0565,-0.25667 0.004,-0.15316 -0.006,-0.19832 -0.0626,-0.29561 -0.0539,-0.0923 -0.0616,-0.12491 -0.0392,-0.16625 0.0153,-0.0283 0.21617,-0.24334 0.44628,-0.47792 0.23011,-0.23459 0.45398,-0.48266 0.4975,-0.55128 0.14562,-0.22963 0.12487,-0.28945 -0.40955,-1.18077 -0.22431,-0.37412 -0.31516,-0.50092 -0.44775,-0.62495 -0.21409,-0.20027 -0.30634,-0.22212 -0.8619,-0.20412 -0.32517,0.0105 -0.44418,0.0255 -0.63955,0.0802 -0.65194,0.18256 -1.39023,0.71274 -1.77569,1.27516 -0.32823,0.47893 -0.51977,1.01367 -0.4425,1.23534 0.0389,0.11169 0.21169,0.3957 0.53854,0.88538 0.22994,0.34449 0.29749,0.42682 0.41591,0.5069 0.0796,0.0538 0.17355,0.096 0.21501,0.0964 0.0696,7.6e-4 0.22244,-0.0425 0.87058,-0.24656 0.15172,-0.0478 0.30242,-0.0868 0.33488,-0.0868 0.0878,0 0.16187,0.063 0.22338,0.19007 0.0444,0.0918 0.0817,0.12608 0.19519,0.17984 0.11245,0.0532 0.14029,0.0787 0.14029,0.12806 0,0.0873 0.0524,0.0591 -1.1439,0.61484 -0.19793,0.0919 -0.4929,0.2309 -0.65549,0.30877 -0.45105,0.21605 -1.41226,0.65983 -1.54234,0.71207 -0.11203,0.045 -0.64259,0.29432 -1.02016,0.4794 -0.27368,0.13415 -0.35965,0.0782 -0.31128,-0.20255 0.0233,-0.13511 0.0196,-0.15615 -0.053,-0.30738 -0.0701,-0.14581 -0.0743,-0.168 -0.0417,-0.21789 0.0199,-0.0306 0.0767,-0.0689 0.12607,-0.0852 0.0554,-0.0183 0.11043,-0.063 0.14372,-0.11688 0.0297,-0.048 0.0854,-0.11377 0.12377,-0.14618 0.10385,-0.0876 0.15865,-0.17711 0.15865,-0.25912 0,-0.097 0.0381,-0.16595 0.15452,-0.27987 0.11617,-0.11365 0.25677,-0.35145 0.25677,-0.43428 0,-0.0614 -0.33895,-0.70786 -0.45955,-0.87645 -0.0761,-0.10636 -0.27974,-0.23721 -0.41406,-0.26602 -0.13433,-0.0288 -0.2025,-0.0844 -0.27208,-0.22166 -0.0346,-0.0682 -0.0902,-0.14198 -0.12361,-0.16386 -0.0955,-0.0626 -0.46782,-0.0942 -0.76904,-0.0653 -0.65407,0.0628 -1.16329,0.2889 -1.6162,0.71768 -0.27528,0.26061 -0.44096,0.52287 -0.5624,0.89026 -0.0735,0.22229 -0.0852,0.29356 -0.0869,0.52697 -0.002,0.30277 0.0153,0.35109 0.25513,0.70774 0.0662,0.0985 0.13835,0.21347 0.16023,0.25547 0.0219,0.042 0.0996,0.14033 0.17272,0.2185 0.0731,0.0782 0.1696,0.20063 0.21441,0.27214 0.1336,0.21318 0.18108,0.24504 0.40208,0.26982 0.18422,0.0207 0.21437,0.0162 0.54253,-0.0797 0.19111,-0.0559 0.36426,-0.10161 0.38478,-0.10161 0.0205,0 0.0596,0.0434 0.0867,0.0964 0.0569,0.11099 0.13596,0.18881 0.25054,0.24667 0.0995,0.0503 0.12221,0.10306 0.0657,0.15295 -0.0574,0.0506 -0.3781,0.20984 -0.94295,0.46815 -0.25449,0.11637 -1.13103,0.51964 -1.94787,0.89614 -0.84244,0.3883 -1.5169,0.68455 -1.55847,0.68455 -0.0403,0 -0.0886,-0.0184 -0.1073,-0.041 -0.0288,-0.0347 -0.0234,-0.0599 0.0356,-0.16484 0.0828,-0.14724 0.0687,-0.21413 -0.0762,-0.36329 -0.0515,-0.053 -0.087,-0.11312 -0.082,-0.13872 0.005,-0.0249 0.078,-0.087 0.16242,-0.13803 0.13177,-0.0797 0.18197,-0.13476 0.35386,-0.38824 0.28247,-0.41657 0.36402,-0.59149 0.36544,-0.7838 10e-4,-0.1496 -0.006,-0.1657 -0.23022,-0.53562 -0.32806,-0.54083 -0.32493,-0.53764 -0.54971,-0.55825 -0.15274,-0.014 -0.20148,-0.0304 -0.28029,-0.0941 -0.11722,-0.0948 -0.12938,-0.14607 -0.0577,-0.24305 0.0747,-0.10099 0.0592,-0.15297 -0.0634,-0.21335 -0.0758,-0.0373 -0.17173,-0.0533 -0.36509,-0.0607 -0.23665,-0.009 -0.29942,-7.3e-4 -0.64264,0.0857 -0.71271,0.1795 -1.20314,0.46606 -1.55551,0.9089 -0.17638,0.22165 -0.22116,0.30469 -0.31381,0.58193 -0.0924,0.27642 -0.11218,0.54649 -0.0547,0.74649 0.0464,0.16169 0.26819,0.56306 0.4894,0.88582 0.0727,0.10604 0.17188,0.2604 0.22047,0.34303 0.13324,0.22658 0.24605,0.31723 0.42217,0.33924 0.0965,0.0121 0.15535,0.008 0.17451,-0.0107 0.0159,-0.0159 0.0541,-0.0289 0.0849,-0.0289 0.0308,0 0.095,-0.0151 0.14267,-0.0335 0.0483,-0.0187 0.18351,-0.0329 0.30518,-0.0321 l 0.2185,0.001 0.0416,0.0832 c 0.06,0.12014 0.0971,0.15853 0.20733,0.21478 0.054,0.0275 0.0981,0.0654 0.0981,0.0841 0,0.0772 -0.0353,0.0949 -1.61946,0.81305 -0.65605,0.29741 -1.36271,0.62105 -1.68371,0.7711 -0.12725,0.0595 -0.33026,0.14622 -0.45115,0.19275 -0.12089,0.0465 -0.26378,0.10819 -0.31754,0.13701 -0.0538,0.0288 -0.11433,0.046 -0.13461,0.0382 -0.0413,-0.0159 -0.10718,-0.13255 -0.14064,-0.24924 -0.0306,-0.10681 0.009,-0.15821 0.26208,-0.33951 0.1165,-0.0835 0.27067,-0.19855 0.3426,-0.25571 0.0719,-0.0572 0.18486,-0.14097 0.25094,-0.18625 0.18078,-0.12388 0.23552,-0.20459 0.21287,-0.31389 -0.0103,-0.0495 -0.0168,-0.14782 -0.0144,-0.21851 0.002,-0.0707 -0.0124,-0.18058 -0.0327,-0.2442 -0.0466,-0.14568 -0.38561,-0.97339 -0.4521,-1.1037 -0.13246,-0.25966 -0.497,-0.45318 -0.9905,-0.52582 -0.5816,-0.0856 -0.86359,-0.078 -1.13104,0.0306 -0.28,0.11363 -0.51569,0.16757 -0.6528,0.14938 -0.15928,-0.0211 -0.16974,-0.0159 -0.45292,0.22672 -0.12314,0.1055 -0.2565,0.19898 -0.29635,0.20774 -0.0819,0.018 -0.11246,0.0486 -0.14083,0.14113 -0.0108,0.0354 -0.0928,0.14971 -0.18225,0.25415 -0.0894,0.10443 -0.1755,0.22912 -0.19133,0.27708 -0.0299,0.0906 -0.15847,0.29381 -0.26895,0.4251 -0.054,0.0642 -0.0638,0.10211 -0.0637,0.24738 0,0.0944 0.0128,0.21781 0.0284,0.27437 0.0395,0.1438 0.19047,0.53349 0.28389,0.73261 0.0431,0.0919 0.10749,0.23966 0.14305,0.32838 0.0729,0.1818 0.13359,0.23714 0.26016,0.23714 0.0695,0 0.10706,0.0217 0.18481,0.10677 0.0852,0.0932 0.11824,0.11025 0.26052,0.1343 0.2757,0.0466 0.50657,0.0346 0.63616,-0.033 0.0863,-0.045 0.13705,-0.0553 0.2126,-0.0433 0.10497,0.0168 0.2135,-0.0227 0.27893,-0.10156 0.0476,-0.0573 0.14895,-0.0939 0.20822,-0.0751 0.0344,0.0109 0.048,0.0399 0.048,0.10206 0,0.0698 0.0229,0.10825 0.11678,0.19628 0.17355,0.16266 0.15985,0.18497 -0.2196,0.3577 -0.39649,0.18049 -1.29008,0.60654 -2.05145,0.97812 -0.31535,0.15391 -0.5801,0.27983 -0.58831,0.27983 -0.0155,0 -0.79995,0.3675 -1.02072,0.4782 -0.34943,0.17521 -0.62745,0.36217 -0.79895,0.53725 -0.4384,0.44759 -0.50617,0.72759 -0.55366,2.28772 -0.0344,1.12987 -0.0876,1.50897 -0.31403,2.23639 -0.23831,0.76565 -0.64963,1.47957 -1.26118,2.18904 -0.34077,0.39532 -0.83538,0.80377 -1.85599,1.53267 -0.21207,0.15146 -0.60952,0.46095 -0.88321,0.68777 -0.2737,0.22682 -0.56288,0.44588 -0.64264,0.48682 -0.16445,0.0844 -0.6374,0.50059 -0.69287,0.60974 -0.0543,0.10675 -0.1296,0.18202 -0.59605,0.59548 -0.23328,0.20677 -0.60403,0.53797 -0.82388,0.736 -0.21986,0.19803 -0.57717,0.51621 -0.79403,0.70708 -0.52204,0.45947 -1.47052,1.2992 -2.18925,1.93822 -0.3196,0.28416 -0.7606,0.66943 -0.97999,0.85614 -0.21939,0.18672 -0.47902,0.41229 -0.57696,0.50126 -0.0979,0.089 -0.39611,0.35264 -0.66262,0.58592 -0.26651,0.23328 -0.60829,0.53404 -0.75952,0.66835 -0.44936,0.3991 -1.02435,0.90563 -1.28531,1.13231 -0.13431,0.11667 -0.31855,0.28267 -0.40942,0.36891 l -0.16523,0.15679 -0.0624,-0.14138 c -0.45482,-1.02972 -1.16493,-3.04034 -1.56153,-4.42137 -0.84913,-2.9568 -1.32635,-5.81607 -1.50804,-9.03552 -0.0415,-0.73555 -0.0415,-3.1717 0,-3.90725 0.25534,-4.52437 1.14603,-8.62105 2.76368,-12.71143 0.65747,-1.66246 1.5274,-3.46691 2.44137,-5.064 4.29074,-7.497753 10.93956,-13.405753 18.90986,-16.802903 1.86254,-0.79386 3.9521,-1.49295 5.9416,-1.98784 2.528,-0.62884 4.8988,-0.98115 7.64583,-1.13618 0.73555,-0.0415 3.1717,-0.0415 3.90726,0 4.52436,0.25534 8.62105,1.14603 12.71142,2.76369 1.66246,0.65746 3.46692,1.52739 5.06401,2.44136 7.49775,4.29074 13.40574,10.939563 16.80289,18.909863 0.42606,0.9996 0.74033,1.83414 1.12853,2.99672 0.92041,2.75653 1.51862,5.51642 1.82192,8.40574 0.1585,1.50989 0.20549,2.45633 0.20549,4.1386 0,1.34933 -0.0205,1.95385 -0.10228,3.02041 -0.30525,3.97953 -1.2115,7.89774 -2.69332,11.64465 -0.65747,1.66246 -1.5274,3.46691 -2.44137,5.064 -4.29074,7.49775 -10.93955,13.40575 -18.90986,16.8029 -0.99959,0.42605 -1.83413,0.74033 -2.99672,1.12852 -3.41574,1.14054 -6.81069,1.78279 -10.52645,1.99139 -0.4722,0.0265 -2.78072,0.052 -3.17464,0.0351 z"
         id="path2018"
         inkscape:export-filename="My Web Sites\22\Pick me a song\lupa headstock.png"
         inkscape:export-xdpi="96"
         inkscape:export-ydpi="96" /><path
         style="color:#000000;fill:#9ae66e;fill-opacity:1;stroke-linecap:square;-inkscape-stroke:none;paint-order:markers stroke fill"
         d="m 288.02734,76.505859 c -27.72326,0 -50.2539,22.530647 -50.2539,50.253911 0,27.72325 22.53064,50.2539 50.2539,50.2539 27.72326,0 50.25391,-22.53065 50.25391,-50.2539 0,-27.723264 -22.53065,-50.253911 -50.25391,-50.253911 z m 0,5.291016 c 24.86344,0 44.9629,20.099455 44.96289,44.962895 0,24.86343 -20.09946,44.96289 -44.96289,44.96289 -24.86343,0 -44.96289,-20.09946 -44.96289,-44.96289 0,-24.86344 20.09946,-44.962895 44.96289,-44.962895 z"
         id="path2020" /><path
         style="color:#000000;fill:#9ae66e;fill-opacity:1;stroke-linejoin:bevel;-inkscape-stroke:none"
         d="m 325.41215,156.70254 -7.48438,7.48437 41.54297,41.54297 c 0,0 5.8131,1.32587 7.52318,-0.51639 1.5802,-1.70233 -0.0408,-6.96798 -0.0408,-6.96798 z"
         id="path2022"
         sodipodi:nodetypes="cccscc" /></g></g></svg>
